<?xml version="1.0" encoding="utf-8"?>
<!-- Generator: Adobe Illustrator 28.2.0, SVG Export Plug-In . SVG Version: 6.00 Build 0)  -->
<svg version="1.1" id="Layer_1" xmlns="http://www.w3.org/2000/svg" xmlns:xlink="http://www.w3.org/1999/xlink" x="0px" y="0px"
	 viewBox="0 0 144 144" style="enable-background:new 0 0 144 144;" xml:space="preserve">
<style type="text/css">
	.st0{fill:#3b3b3b;}
</style>
<path class="st0" d="M96.27,103.14c-1.67-2.49-3.11-5.05-4.94-7.3c-2.86-3.53-6.56-6-10.91-7.39c-0.47-0.15-1.13,0-1.61,0.22
	c-4.54,1.98-9.05,1.96-13.6,0.03c-0.6-0.26-1.47-0.28-2.09-0.06c-6.45,2.28-11.06,6.65-14.17,12.69c-0.33,0.65-0.66,1.3-0.99,1.97
	C39.81,96.75,33.6,83.07,36.9,68.68c3.79-16.51,17.86-27,32.73-27.9c18.17-1.1,32.68,10.77,36.98,25.96
	C110.91,81.94,104.58,96.34,96.27,103.14z M85.12,73.43c0.34-7.39-6.34-13.22-13-13.29c-6.95-0.06-13.3,6.04-13.29,13.2
	c0,7.15,5.84,13.28,13.21,13.26C79.4,86.59,85.4,80.46,85.12,73.43z"/>
</svg>
